<svg width="650" height="650" viewBox="0 0 650 650" fill="none" xmlns="http://www.w3.org/2000/svg">
<path d="M122 523C122 467.772 166.772 423 222 423H432C487.228 423 532 467.772 532 523V640C532 645.523 527.523 650 522 650H132C126.477 650 122 645.523 122 640V523Z" fill="#370407"/>
<path d="M517 385C517 362.909 534.909 345 557 345H560C582.091 345 600 362.909 600 385V401H517V385Z" fill="#E5C2A6"/>
<rect x="149" y="114" width="355" height="57" fill="#CB8C7A"/>
<path d="M149 110C149 54.7715 193.772 10 249 10H404C459.228 10 504 54.7715 504 110V114H149V110Z" fill="#3CA0A2"/>
<path d="M177.423 66.7215C181.672 59.2021 193.173 62.8201 192.352 71.4177L189.279 103.594C188.781 108.805 193.339 113.082 198.508 112.254L230.423 107.14C238.951 105.774 243.294 117.021 236.06 121.74L208.987 139.398C204.603 142.258 204.101 148.489 207.971 152.014L231.868 173.778C238.253 179.593 232.167 190.001 223.968 187.287L193.282 177.131C188.313 175.486 183.128 178.978 182.786 184.202L180.669 216.455C180.104 225.073 168.172 226.804 165.181 218.701L153.99 188.378C152.177 183.467 146.214 181.591 141.917 184.58L115.381 203.035C108.29 207.966 99.4979 199.716 103.968 192.327L120.698 164.67C123.407 160.191 121.156 154.36 116.14 152.864L85.1663 143.623C76.89 141.154 77.8581 129.136 86.4229 128.024L118.476 123.86C123.667 123.186 126.823 117.79 124.865 112.935L112.778 82.9581C109.548 74.948 119.548 68.2118 125.757 74.2144L148.997 96.6788C152.761 100.317 158.947 99.4198 161.522 94.8623L177.423 66.7215Z" fill="#C6745C"/>
<circle cx="162" cy="143" r="15" fill="#391A15"/>
<rect x="36" y="171" width="579" height="186" rx="75" fill="#3CA0A2"/>
<path d="M41 406C41 403.239 43.2386 401 46 401H144C146.761 401 149 403.239 149 406V522C149 549.614 126.614 572 99 572H91C63.3858 572 41 549.614 41 522V406Z" fill="#370407"/>
<path d="M54 385C54 362.909 71.9086 345 94 345H96C118.091 345 136 362.909 136 385V401H54V385Z" fill="#E5C2A6"/>
<path d="M504 406C504 403.239 506.239 401 509 401H608C610.761 401 613 403.239 613 406V522C613 549.614 590.614 572 563 572H554C526.386 572 504 549.614 504 522V406Z" fill="#370407"/>
<path d="M157 275C157 252.909 174.909 235 197 235H457C479.091 235 497 252.909 497 275V323C497 378.228 452.228 423 397 423H257C201.772 423 157 378.228 157 323V275Z" fill="#E5C2A6"/>
<rect x="220" y="238" width="65" height="31" rx="15.5" fill="white"/>
<rect x="248" y="238" width="36" height="26" rx="13" fill="black"/>
<rect x="365" y="238" width="65" height="31" rx="15.5" fill="white"/>
<rect x="393" y="238" width="36" height="26" rx="13" fill="black"/>
<path d="M281 287C291.68 299 314.057 299 325.076 299C336.095 299 359.32 299 370 287" stroke="black" stroke-width="4" stroke-linecap="round"/>
<path d="M320.952 242C314.461 245.21 310.608 263.028 318.124 265.575C326.607 268.45 330 255.8 330 255.8" stroke="black" stroke-width="4" stroke-linecap="round"/>
<ellipse cx="252" cy="250" rx="2" ry="5" fill="white"/>
<ellipse cx="398.5" cy="250" rx="1.5" ry="5" fill="white"/>
</svg>
